<svg xmlns="http://www.w3.org/2000/svg" viewBox="0 0 86 84"><title>All glyphs</title><g id="Layer_2" data-name="Layer 2"><g id="All_glyphs" data-name="All glyphs"><path d="M83.61,10.34c-1.48-1.28-9.53-7.38-11-8.68A8.85,8.85,0,0,0,67.06,0H18.94a8.85,8.85,0,0,0-5.51,1.66c-1.51,1.3-9.56,7.4-11,8.68A6.36,6.36,0,0,0,.07,16.29C.47,19,9.76,81.15,9.76,81.15a4.45,4.45,0,0,0,4,2.85H72.28a4.45,4.45,0,0,0,4-2.85S85.53,19,85.93,16.29A6.36,6.36,0,0,0,83.61,10.34ZM43,53.84c-16.24,0-19.72-23-20.44-27.72h9.19C33.13,33,36.27,44.84,43,44.84S52.87,33,54.25,26.12h9.19C62.72,30.86,59.24,53.84,43,53.84ZM7.82,17l11-11.5H67.16l11,11.5Z"/></g></g></svg>