<?xml version="1.0" encoding="UTF-8" standalone="no"?>
<svg
   xmlns:dc="http://purl.org/dc/elements/1.1/"
   xmlns:cc="http://creativecommons.org/ns#"
   xmlns:rdf="http://www.w3.org/1999/02/22-rdf-syntax-ns#"
   xmlns:svg="http://www.w3.org/2000/svg"
   xmlns="http://www.w3.org/2000/svg"
   id="svg3209"
   version="1.1"
   viewBox="0 0 86 84">
  <metadata
     id="metadata3215">
    <rdf:RDF>
      <cc:Work
         rdf:about="">
        <dc:format>image/svg+xml</dc:format>
        <dc:type
           rdf:resource="http://purl.org/dc/dcmitype/StillImage" />
        <dc:title>All glyphs</dc:title>
      </cc:Work>
    </rdf:RDF>
  </metadata>
  <defs
     id="defs3213" />
  <title
     id="title3203">All glyphs</title>
  <g
     data-name="Layer 2"
     id="Layer_2">
    <g
       data-name="All glyphs"
       id="All_glyphs">
      <path
         style="fill:#ffffff"
         id="path3205"
         d="M83.61,10.34c-1.48-1.28-9.53-7.38-11-8.68A8.85,8.85,0,0,0,67.06,0H18.94a8.85,8.85,0,0,0-5.51,1.66c-1.51,1.3-9.56,7.4-11,8.68A6.36,6.36,0,0,0,.07,16.29C.47,19,9.76,81.15,9.76,81.15a4.45,4.45,0,0,0,4,2.85H72.28a4.45,4.45,0,0,0,4-2.85S85.53,19,85.93,16.29A6.36,6.36,0,0,0,83.61,10.34ZM43,53.84c-16.24,0-19.72-23-20.44-27.72h9.19C33.13,33,36.27,44.84,43,44.84S52.87,33,54.25,26.12h9.19C62.72,30.86,59.24,53.84,43,53.84ZM7.82,17l11-11.5H67.16l11,11.5Z" />
    </g>
  </g>
</svg>
