<?xml version="1.0" encoding="UTF-8" standalone="no"?>
<svg
   xmlns:dc="http://purl.org/dc/elements/1.1/"
   xmlns:cc="http://creativecommons.org/ns#"
   xmlns:rdf="http://www.w3.org/1999/02/22-rdf-syntax-ns#"
   xmlns:svg="http://www.w3.org/2000/svg"
   xmlns="http://www.w3.org/2000/svg"
   id="svg30"
   version="1.1"
   viewBox="0 0 100 80">
  <metadata
     id="metadata36">
    <rdf:RDF>
      <cc:Work
         rdf:about="">
        <dc:format>image/svg+xml</dc:format>
        <dc:type
           rdf:resource="http://purl.org/dc/dcmitype/StillImage" />
        <dc:title>All glyphs</dc:title>
      </cc:Work>
    </rdf:RDF>
  </metadata>
  <defs
     id="defs34" />
  <title
     id="title24">All glyphs</title>
  <g
     data-name="Layer 2"
     id="Layer_2">
    <g
       data-name="All glyphs"
       id="All_glyphs">
      <path
         style="fill:#ffffff"
         id="path26"
         d="M50,30A15,15,0,1,0,65,45,15,15,0,0,0,50,30ZM90,15H78a4.45,4.45,0,0,1-4-2.85L71,2.85A4.45,4.45,0,0,0,67,0H33a4.45,4.45,0,0,0-3.95,2.85L26,12.15A4.45,4.45,0,0,1,22,15H10A10,10,0,0,0,0,25V70A10,10,0,0,0,10,80H90a10,10,0,0,0,10-10V25A10,10,0,0,0,90,15ZM50,70A25,25,0,1,1,75,45,25,25,0,0,1,50,70ZM86.5,32a3.5,3.5,0,1,1,3.5-3.5A3.5,3.5,0,0,1,86.5,32Z" />
    </g>
  </g>
</svg>
