<svg xmlns="http://www.w3.org/2000/svg" viewBox="0 0 84 84"><title>All glyphs</title><g id="Layer_2" data-name="Layer 2"><g id="cog"><path d="M75.92,42c0-5.24,3.22-9.37,8.08-12.21a43.28,43.28,0,0,0-3.46-8.36C75.1,22.85,70.69,20.72,67,17S62.15,8.9,63.57,3.46A43.28,43.28,0,0,0,55.21,0c-2.84,4.86-8,8.08-13.21,8.08S31.63,4.86,28.79,0a43.28,43.28,0,0,0-8.36,3.46C21.85,8.9,20.72,13.31,17,17S8.9,22.85,3.46,21.43A43.28,43.28,0,0,0,0,29.79c4.86,2.84,8.08,7,8.08,12.21S4.86,52.37,0,55.21a43.28,43.28,0,0,0,3.46,8.36C8.9,62.15,13.31,63.28,17,67s4.84,8.11,3.42,13.55A43.28,43.28,0,0,0,28.79,84c2.84-4.85,8-8.08,13.21-8.08S52.37,79.15,55.21,84a43.28,43.28,0,0,0,8.36-3.46C62.15,75.1,63.28,70.69,67,67s8.11-5.84,13.55-4.42A43.28,43.28,0,0,0,84,54.21C79.14,51.37,75.92,47.24,75.92,42ZM42,60.27A18.27,18.27,0,1,1,60.26,42,18.26,18.26,0,0,1,42,60.27Z"/></g></g></svg>