<svg xmlns="http://www.w3.org/2000/svg" viewBox="0 0 373.57 244.6"><title>Capa 1</title><g id="Layer_2" data-name="Layer 2"><g id="Capa_1" data-name="Capa 1"><path d="M314.33.07H58.81a58.74,58.74,0,0,0-40,13.12l14.48,9.36,109.92,71.2a8.23,8.23,0,0,1,2.88,1.76l40,26L339.77,22.63l14.56-9.44A62.78,62.78,0,0,0,314.33.07Z"/><path d="M22.25,34.31,8.73,25.51A65.31,65.31,0,0,0,.09,58.63L0,185.75a63.25,63.25,0,0,0,11.84,37.84l11.36-11.76L127.93,103Z"/><path d="M338.81,222.63,232,111.91l-40.8,26.4-1.36.64h-.64a7.44,7.44,0,0,1-2,0,7.44,7.44,0,0,1-2,0h-.64l-1.92-.64-40.48-26.24L34.81,223,23.29,234.87a61.11,61.11,0,0,0,35.52,9.68h256a64.51,64.51,0,0,0,35.28-10.24Z"/><path d="M373.53,185.75V58.87a62.62,62.62,0,0,0-8.4-33.28l-13.6,8.72-105.6,68.4L350.57,211.59,362,223.51A60,60,0,0,0,373.53,185.75Z"/></g></g></svg>