<svg xmlns="http://www.w3.org/2000/svg" viewBox="0 0 96 96"><title>All glyphs</title><g id="Layer_2" data-name="Layer 2"><g id="All_glyphs" data-name="All glyphs"><path d="M43.48,34.42c-1.2-4.24-3.15-5.5-6.19-5.5a3.54,3.54,0,0,0-1,.13,4.6,4.6,0,0,0-2.94,3.1,8.71,8.71,0,0,0-.11,5.34c.92,3.5,3.41,6,5.92,6a3.49,3.49,0,0,0,1-.13C42.9,42.62,44.62,38.43,43.48,34.42ZM48,0A48,48,0,1,0,96,48,48,48,0,0,0,48,0ZM45.23,68.61a18.11,18.11,0,0,1-7.51,1.62h-.65c-2,0-11.71-.45-11.71-9.34,0-8.73,10.62-9.41,13.88-9.41h.09a7.24,7.24,0,0,1-1.49-5l-.71,0A10.68,10.68,0,0,1,31.51,45c-2.49-1.6-3.75-4.32-3.75-8.09,0-10.66,11.64-11.09,11.75-11.09H51.13V26c0,1.3-2.33,1.55-3.93,1.77a9.8,9.8,0,0,0-1.92.34c2.94,1.57,3.42,4,3.42,7.72a9.77,9.77,0,0,1-3.39,8c-1.07,1-1.92,1.73-1.92,2.74s1.16,2,2.51,3.19c2.21,1.94,5.23,4.6,5.23,9C51.13,63.41,49.15,66.71,45.23,68.61ZM70.64,48H63.06v7.57h-4.8V48H50.68v-4.8h7.58V35.58h4.8v7.58h7.58Zm-31.53,5.8-.78,0a9.68,9.68,0,0,0-5.76,2.35,5.91,5.91,0,0,0-2.11,4.71c.23,3.54,4,5.63,8.68,5.29s7.6-2.95,7.38-6.51C46.31,56.28,43.4,53.76,39.11,53.76Z"/></g></g></svg>