<svg xmlns="http://www.w3.org/2000/svg" viewBox="0 0 96 96"><title>All glyphs</title><g id="Layer_2" data-name="Layer 2"><g id="All_glyphs" data-name="All glyphs"><path d="M48,0A48,48,0,1,0,96,48,48,48,0,0,0,48,0Zm3.28,59.38c-3.07-.24-4.37-1.76-6.78-3.22-1.32,7-2.94,13.62-7.74,17.1-1.49-10.51,2.17-18.41,3.87-26.79-2.9-4.87.35-14.68,6.46-12.26,7.51,3-6.51,18.12,2.9,20,9.83,2,13.84-17,7.75-23.24C48.93,22,32.11,30.77,34.17,43.57c.51,3.12,3.74,4.07,1.29,8.39-5.63-1.25-7.31-5.69-7.1-11.62.35-9.7,8.72-16.49,17.11-17.43,10.61-1.19,20.58,3.89,22,13.88C69,48.06,62.63,60.26,51.28,59.38Z"/></g></g></svg>