<svg xmlns="http://www.w3.org/2000/svg" viewBox="0 0 79 79"><title>All glyphs</title><g id="Layer_2" data-name="Layer 2"><g id="All_glyphs" data-name="All glyphs"><path d="M77.22,66.84,58.33,47.94a30.75,30.75,0,0,0,4.49-16.06C62.82,14.8,48,0,30.93,0A30.93,30.93,0,0,0,0,30.93C0,48,14.8,62.82,31.88,62.82a30.84,30.84,0,0,0,15.58-4.21l19,19a4.77,4.77,0,0,0,6.73,0L77.9,72.9C79.76,71,79.08,68.7,77.22,66.84ZM9.52,30.93A21.42,21.42,0,0,1,30.93,9.52c11.83,0,22.37,10.54,22.37,22.36A21.42,21.42,0,0,1,31.88,53.3C20.06,53.3,9.52,42.76,9.52,30.93Z"/></g></g></svg>