<?xml version="1.0" encoding="UTF-8" standalone="no"?>
<svg
   xmlns:dc="http://purl.org/dc/elements/1.1/"
   xmlns:cc="http://creativecommons.org/ns#"
   xmlns:rdf="http://www.w3.org/1999/02/22-rdf-syntax-ns#"
   xmlns:svg="http://www.w3.org/2000/svg"
   xmlns="http://www.w3.org/2000/svg"
   id="svg2067"
   version="1.1"
   viewBox="0 0 100 90">
  <metadata
     id="metadata2073">
    <rdf:RDF>
      <cc:Work
         rdf:about="">
        <dc:format>image/svg+xml</dc:format>
        <dc:type
           rdf:resource="http://purl.org/dc/dcmitype/StillImage" />
        <dc:title>All glyphs</dc:title>
      </cc:Work>
    </rdf:RDF>
  </metadata>
  <defs
     id="defs2071" />
  <title
     id="title2061">All glyphs</title>
  <g
     data-name="Layer 2"
     id="Layer_2">
    <g
       data-name="All glyphs"
       id="All_glyphs">
      <path
         style="fill:#ffffff"
         id="path2063"
         d="M90,15H85V90h5a10,10,0,0,0,10-10V25A10,10,0,0,0,90,15ZM0,25V80A10,10,0,0,0,10,90h5V15H10A10,10,0,0,0,0,25ZM67,4.53C63.6,3,58.16,0,50,0S36.4,3,33,4.53V15H22V90H78V15H67ZM61,15H39V8.32a27.24,27.24,0,0,1,22,0Z" />
    </g>
  </g>
</svg>
