<svg xmlns="http://www.w3.org/2000/svg" viewBox="0 0 96 96"><title>All glyphs</title><g id="Layer_2" data-name="Layer 2"><g id="All_glyphs" data-name="All glyphs"><path d="M48,0A48,48,0,1,0,96,48,48,48,0,0,0,48,0ZM67.52,39.32q0,.61,0,1.23c0,12.49-9.51,26.9-26.9,26.9A26.76,26.76,0,0,1,26.16,63.2a18.62,18.62,0,0,0,2.25.13,19,19,0,0,0,11.75-4,9.47,9.47,0,0,1-8.84-6.56,9.51,9.51,0,0,0,1.78.17,9.3,9.3,0,0,0,2.49-.34A9.45,9.45,0,0,1,28,43.28v-.11a9.54,9.54,0,0,0,4.28,1.18,9.47,9.47,0,0,1-4.2-7.87,9.33,9.33,0,0,1,1.28-4.75A26.81,26.81,0,0,0,48.85,41.6,9.46,9.46,0,0,1,65,33a18.91,18.91,0,0,0,6-2.29,9.54,9.54,0,0,1-4.16,5.23,19,19,0,0,0,5.43-1.49A19.25,19.25,0,0,1,67.52,39.32Z"/></g></g></svg>