<svg xmlns="http://www.w3.org/2000/svg" viewBox="0 0 94 90"><title>All glyphs</title><g id="Layer_2" data-name="Layer 2"><g id="All_glyphs" data-name="All glyphs"><path d="M73.6,67.24C61.28,62.75,57.34,59,57.34,50.84c0-4.87,3.76-3.28,5.41-12.19.69-3.71,4-.06,4.65-8.51,0-3.37-1.82-4.2-1.82-4.2s.93-5,1.29-8.82C67.31,12.34,64.11,0,47,0S26.68,12.34,27.13,17.12c.36,3.83,1.29,8.82,1.29,8.82s-1.82.83-1.82,4.2c.64,8.45,4,4.8,4.65,8.51,1.65,8.91,5.41,7.32,5.41,12.19,0,8.12-3.94,11.91-16.26,16.4S0,76.34,0,79.47V90H94V79.47C94,76.34,86,71.75,73.6,67.24Z"/></g></g></svg>