<?xml version="1.0" encoding="UTF-8" standalone="no"?>
<svg
   xmlns:dc="http://purl.org/dc/elements/1.1/"
   xmlns:cc="http://creativecommons.org/ns#"
   xmlns:rdf="http://www.w3.org/1999/02/22-rdf-syntax-ns#"
   xmlns:svg="http://www.w3.org/2000/svg"
   xmlns="http://www.w3.org/2000/svg"
   xmlns:sodipodi="http://sodipodi.sourceforge.net/DTD/sodipodi-0.dtd"
   xmlns:inkscape="http://www.inkscape.org/namespaces/inkscape"
   viewBox="0 0 98 70"
   version="1.1"
   id="svg1482"
   sodipodi:docname="ic_video_grey.svg"
   inkscape:version="0.92.4 (5da689c313, 2019-01-14)">
  <metadata
     id="metadata1488">
    <rdf:RDF>
      <cc:Work
         rdf:about="">
        <dc:format>image/svg+xml</dc:format>
        <dc:type
           rdf:resource="http://purl.org/dc/dcmitype/StillImage" />
        <dc:title>All glyphs</dc:title>
      </cc:Work>
    </rdf:RDF>
  </metadata>
  <defs
     id="defs1486" />
  <sodipodi:namedview
     pagecolor="#ffffff"
     bordercolor="#666666"
     borderopacity="1"
     objecttolerance="10"
     gridtolerance="10"
     guidetolerance="10"
     inkscape:pageopacity="0"
     inkscape:pageshadow="2"
     inkscape:window-width="1920"
     inkscape:window-height="1001"
     id="namedview1484"
     showgrid="false"
     inkscape:zoom="3.3714286"
     inkscape:cx="0.059322034"
     inkscape:cy="35"
     inkscape:window-x="-9"
     inkscape:window-y="-9"
     inkscape:window-maximized="1"
     inkscape:current-layer="svg1482" />
  <title
     id="title1476">All glyphs</title>
  <g
     id="Layer_2"
     data-name="Layer 2">
    <g
       id="All_glyphs"
       data-name="All glyphs">
      <path
         d="M98,10V4a4,4,0,0,0-4-4H4A4,4,0,0,0,0,4v6H10V20H0V30H10V40H0V50H10V60H0v6a4,4,0,0,0,4,4H94a4,4,0,0,0,4-4V60H88V50H98V40H88V30H98V20H88V10ZM38,50V20L63,35Z"
         id="path1478"
         style="fill:#90899c;fill-opacity:1" />
    </g>
  </g>
</svg>
