<?xml version="1.0" encoding="UTF-8" standalone="no"?>
<svg
   xmlns:dc="http://purl.org/dc/elements/1.1/"
   xmlns:cc="http://creativecommons.org/ns#"
   xmlns:rdf="http://www.w3.org/1999/02/22-rdf-syntax-ns#"
   xmlns:svg="http://www.w3.org/2000/svg"
   xmlns="http://www.w3.org/2000/svg"
   id="svg1482"
   version="1.1"
   viewBox="0 0 98 70">
  <metadata
     id="metadata1488">
    <rdf:RDF>
      <cc:Work
         rdf:about="">
        <dc:format>image/svg+xml</dc:format>
        <dc:type
           rdf:resource="http://purl.org/dc/dcmitype/StillImage" />
        <dc:title>All glyphs</dc:title>
      </cc:Work>
    </rdf:RDF>
  </metadata>
  <defs
     id="defs1486" />
  <title
     id="title1476">All glyphs</title>
  <g
     data-name="Layer 2"
     id="Layer_2">
    <g
       data-name="All glyphs"
       id="All_glyphs">
      <path
         style="fill:#ffffff"
         id="path1478"
         d="M98,10V4a4,4,0,0,0-4-4H4A4,4,0,0,0,0,4v6H10V20H0V30H10V40H0V50H10V60H0v6a4,4,0,0,0,4,4H94a4,4,0,0,0,4-4V60H88V50H98V40H88V30H98V20H88V10ZM38,50V20L63,35Z" />
    </g>
  </g>
</svg>
